<svg xmlns="http://www.w3.org/2000/svg" width="105" height="100"><path fill="#FF9800" d="M105 50c0 28.862-23.513 50-52.5 50S0 76.588 0 47.726c0-9.043 2.33-17.59 6.392-25a.995.995 0 0 1 .23-.366C4.338 18.956 3.334 10.318 9.128 4.541c0 2.411 1.464 6.548 3.104 9.638 1.326 2.457 2.737 4.228 3.741 4 2.284-.543 10.27-.543 11.412 0 1.877-2.405 6.445-9.09 13.703-9.09-4.062 4.045-15.704 18.185 4.567 18.185h4.568L36.52 36.363s1.556 3 0 4.548c-1.732-1.732-9.128 1.862-9.128 6.815s5.296 11.363 15.98 11.363c10.683 0 7.986-4.548 13.696-4.548 5.709 0 6.844 4.548 6.844 4.548-7.855 0-13.558 9.09-22.824 9.09 4.567 3.364 7.58 4.547 13.696 4.547 15.113 0 27.392-12.225 27.392-27.274 0-6.09-2.008-11.683-5.388-16.224a27.414 27.414 0 0 1 10.96 19.498 40.554 40.554 0 0 0 1.279-10.089c0-13.683-5.84-31.776-15.98-38.637C87.655 4.358 105 18.466 105 45.452V50z"/></svg>